<?xml version="1.0" encoding="UTF-8" standalone="no"?>
<svg
   xmlns:dc="http://purl.org/dc/elements/1.1/"
   xmlns:cc="http://creativecommons.org/ns#"
   xmlns:rdf="http://www.w3.org/1999/02/22-rdf-syntax-ns#"
   xmlns:svg="http://www.w3.org/2000/svg"
   xmlns="http://www.w3.org/2000/svg"
   xmlns:sodipodi="http://sodipodi.sourceforge.net/DTD/sodipodi-0.dtd"
   xmlns:inkscape="http://www.inkscape.org/namespaces/inkscape"
   id="svg2"
   version="1.1"
   xml:space="preserve"
   width="43.141384"
   height="44.539127"
   viewBox="0 0 43.141384 44.539127"
   inkscape:version="0.91 r13725"
   sodipodi:docname="edit.svg"><sodipodi:namedview
     pagecolor="#ffffff"
     bordercolor="#666666"
     borderopacity="1"
     objecttolerance="10"
     gridtolerance="10"
     guidetolerance="10"
     inkscape:pageopacity="0"
     inkscape:pageshadow="2"
     inkscape:window-width="1149"
     inkscape:window-height="733"
     id="namedview489"
     showgrid="false"
     fit-margin-top="3"
     fit-margin-left="3"
     fit-margin-right="3"
     fit-margin-bottom="3"
     inkscape:zoom="0.65175812"
     inkscape:cx="44.202138"
     inkscape:cy="-165.44492"
     inkscape:window-x="0"
     inkscape:window-y="0"
     inkscape:window-maximized="0"
     inkscape:current-layer="svg2" /><metadata
     id="metadata8"><rdf:RDF><cc:Work
         rdf:about=""><dc:format>image/svg+xml</dc:format><dc:type
           rdf:resource="http://purl.org/dc/dcmitype/StillImage" /><dc:title></dc:title></cc:Work></rdf:RDF></metadata><defs
     id="defs6"><clipPath
       clipPathUnits="userSpaceOnUse"
       id="clipPath16"><path
         d="m 0,2750 275,0 L 275,0 0,0 0,2750 Z"
         id="path18"
         inkscape:connector-curvature="0" /></clipPath></defs><g
     transform="matrix(1.2538759,0,0,-1.2505139,34.016827,13.348003)"
     id="g872"><path
       id="path874"
       style="fill:#424142;fill-opacity:1;fill-rule:evenodd;stroke:none"
       d="M 0,0 0.968,1.007 -2.101,4.2 -3.124,3.136 -0.055,-0.057 -16.424,-17.088 -19.493,-13.895 -1.078,5.265 1.991,2.071 0,0 Z m -21.539,-19.217 1.535,3.726 2.046,-2.129 -3.581,-1.597 z M 4.037,4.2 0.968,7.393 c -1.13,1.176 -2.962,1.176 -4.092,0 l -18.415,-19.159 0,0 -3.123,-9.748 c -0.253,-0.788 0.157,-1.215 0.915,-0.952 l 9.369,3.249 0,0 18.415,19.16 c 1.13,1.175 1.13,3.081 0,4.257"
       inkscape:connector-curvature="0" /></g></svg>