<?xml version="1.0" encoding="iso-8859-1"?>
<!-- Generator: Adobe Illustrator 18.1.1, SVG Export Plug-In . SVG Version: 6.00 Build 0)  -->
<svg version="1.1" id="Capa_1" xmlns="http://www.w3.org/2000/svg" xmlns:xlink="http://www.w3.org/1999/xlink" x="0px" y="0px"
	 viewBox="0 0 612 612" style="enable-background:new 0 0 612 612;" xml:space="preserve">
<g>
	<path d="M556.501,116.172h-300.45c-24.392-17.746-50.292-18.5-51.046-18.5H68.107c-55.499,0-65.846,37-68.107,53.307
		c0,0.754,0,0.754,0,1.507v298.943c0,34.807,28.092,62.899,62.899,62.899h486.201c34.807,0,62.899-28.092,62.899-62.899V200.517
		v-29.6C612,140.564,586.854,116.172,556.501,116.172z M584.593,170.917v16.307H373.695c-38.507,0-57.692-14.046-64.407-20.692
		l-23.639-23.707h271.604C572.054,143.51,584.593,156.118,584.593,170.917z M584.593,451.36c0,19.253-15.554,35.492-35.492,35.492
		H62.899c-19.253,0-35.492-15.554-35.492-35.492V153.171c2.193-18.5,15.554-28.092,40.7-28.092h136.145
		c0,0,20.007,0.754,38.507,15.554l0,0c2.193,1.507,3.7,2.946,5.207,5.207l41.453,40.7l0.754,0.754
		c8.907,8.154,35.492,27.407,82.906,27.407h210.897v236.797h0.617V451.36z"/>
</g>
<g>
</g>
<g>
</g>
<g>
</g>
<g>
</g>
<g>
</g>
<g>
</g>
<g>
</g>
<g>
</g>
<g>
</g>
<g>
</g>
<g>
</g>
<g>
</g>
<g>
</g>
<g>
</g>
<g>
</g>
</svg>
