<?xml version="1.0" encoding="iso-8859-1"?>
<!-- Generator: Adobe Illustrator 18.1.1, SVG Export Plug-In . SVG Version: 6.00 Build 0)  -->
<svg version="1.1" id="Capa_1" xmlns="http://www.w3.org/2000/svg" xmlns:xlink="http://www.w3.org/1999/xlink" x="0px" y="0px"
	 viewBox="0 0 612.066 612.066" style="enable-background:new 0 0 612.066 612.066;" xml:space="preserve">
<g>
	<path d="M577.828,340.238v-27.773c0-150.345-121.846-272.191-272.191-272.191S33.513,162.12,33.513,312.465v27.773
		C13.59,348.814,0,368.011,0,390.837v92.621c0,29.95,24.211,54.887,54.887,54.887H90.51c3.562,0,6.399-0.726,9.961-0.726
		c7.85,19.923,27.048,34.172,49.873,34.172h4.288c29.225,0,53.435-24.211,53.435-53.435V355.939
		c0-27.773-21.374-50.599-47.762-53.435c6.399-75.535,69.796-134.644,146.782-134.644s138.932,59.834,145.331,135.37
		c-27.048,2.111-48.422,24.936-48.422,52.71v161.757c0,29.224,24.211,53.435,53.435,53.435h4.288
		c22.825,0,42.023-14.249,49.873-34.172c3.562,0.726,6.399,0.726,9.961,0.726h35.624c29.95,0,54.887-24.211,54.887-54.887v-92.687
		C611.34,368.077,597.817,348.089,577.828,340.238z M54.161,511.231c-14.975,0-27.773-12.138-27.773-27.773v-92.621
		c0-13.524,9.236-24.211,22.1-27.048h0.726h0.726c1.451,0,2.837-0.726,4.288-0.726h35.624c2.111,0,4.288,0,6.399,0.726v146.057
		c-2.111,0.726-4.288,0.726-6.399,0.726H54.227v0.66H54.161z M180.295,355.939v161.757c0,14.249-12.138,26.388-26.388,26.388h-4.288
		c-14.249,0-25.662-11.413-26.388-25.662l0,0c0-0.726,0-0.726,0-1.451V356.665c0-0.726,0-0.726,0-1.451
		c0-6.399,2.837-12.138,6.399-16.36l0,0c0.726-1.451,2.111-2.111,3.562-2.837l0,0c3.562-2.837,7.85-4.288,12.798-5.014l0,0
		c0.726,0,2.111,0,2.837,0h4.288C168.157,329.551,180.295,341.69,180.295,355.939z M305.703,140.746
		c-92.621,0-168.882,73.358-173.83,164.594c-5.673,2.111-10.687,5.014-14.975,8.576l0,0c-1.451,1.451-2.837,2.111-4.288,3.562l0,0
		c-2.837,2.837-5.014,5.673-7.125,8.576c0,0,0,0.726-0.726,0.726c-0.726,1.451-1.451,2.837-2.111,4.288v0.726
		c-0.726,1.451-1.451,2.837-2.111,5.014l0,0c-0.726,0-0.726,0-1.451,0c-2.837-0.726-5.673-0.726-8.576-0.726H61.286v-23.485
		c0-135.37,109.707-245.077,245.077-245.077S551.44,177.227,551.44,312.597v23.485h-29.225c-2.837,0-5.673,0-8.576,0.726h-0.726l0,0
		c-0.726-1.451-1.451-2.837-2.111-5.014v-0.726c-0.726-1.451-1.451-2.837-2.111-4.288c0,0,0-0.726-0.726-0.726
		c-2.111-2.837-4.288-5.673-7.125-8.576l0,0c-1.451-1.451-2.837-2.111-4.288-3.562l0,0c-4.288-3.562-9.236-6.399-14.975-8.576
		C474.519,214.17,398.324,140.746,305.703,140.746z M461.721,544.018h-4.288c-14.249,0-26.388-12.138-26.388-26.388V355.939
		c0-14.249,12.138-26.388,26.388-26.388h4.288c0.726,0,2.111,0,2.837,0l0,0c5.014,0.726,9.236,2.111,12.798,5.014l0,0
		c1.451,0.726,2.111,2.111,3.562,2.837l0,0c4.288,4.288,6.399,9.961,6.399,16.36c0,0.726,0,0.726,0,1.451v160.306
		c0,0.726,0,1.451,0,1.451l0,0C487.383,532.606,475.971,544.018,461.721,544.018z M584.227,483.458
		c0,14.975-12.138,27.773-27.773,27.773H520.83c-2.111,0-4.288,0-6.399-0.726V363.789c2.111-0.726,4.288-0.726,6.399-0.726h35.624
		c1.451,0,2.837,0,4.288,0.726h0.726h0.726c12.798,2.837,22.1,13.524,22.1,27.048L584.227,483.458L584.227,483.458z"/>
</g>
<g>
</g>
<g>
</g>
<g>
</g>
<g>
</g>
<g>
</g>
<g>
</g>
<g>
</g>
<g>
</g>
<g>
</g>
<g>
</g>
<g>
</g>
<g>
</g>
<g>
</g>
<g>
</g>
<g>
</g>
</svg>
