<?xml version="1.0" encoding="iso-8859-1"?>
<!-- Generator: Adobe Illustrator 18.1.1, SVG Export Plug-In . SVG Version: 6.00 Build 0)  -->
<svg version="1.1" id="Capa_1" xmlns="http://www.w3.org/2000/svg" xmlns:xlink="http://www.w3.org/1999/xlink" x="0px" y="0px"
	 viewBox="0 0 612.658 612.658" style="enable-background:new 0 0 612.658 612.658;" xml:space="preserve">
<g>
	<path d="M305.927,132.637c-95.566,0-173.729,78.163-173.729,173.729s78.163,173.729,173.729,173.729
		s173.729-78.237,173.729-173.729S402.297,132.637,305.927,132.637z M305.927,450.847c-79.772,0-144.482-64.783-144.482-144.482
		s64.783-144.482,144.482-144.482s144.482,64.71,144.482,144.482S385.699,450.847,305.927,450.847z M291.742,63.905v-49.72
		C291.742,6.288,298.03,0,305.927,0s14.185,6.288,14.185,14.185v49.72c0,7.897-6.288,14.185-14.185,14.185
		C298.03,78.895,291.742,71.802,291.742,63.905z M147.991,60.761c-3.948-7.092-1.609-15.794,5.557-19.742
		c7.092-3.948,15.794-1.609,19.742,5.557l24.495,42.628c3.948,7.092,1.609,15.794-5.557,19.742c-2.34,1.609-4.753,1.609-7.092,1.609
		c-4.753,0-10.237-2.34-12.649-7.092L147.991,60.761z M109.312,192.594c-2.34,4.753-7.897,7.092-12.649,7.092
		c-2.34,0-4.753-0.804-7.092-1.609l-42.628-24.495c-7.092-3.948-9.505-12.649-5.557-19.742s12.649-9.505,19.742-5.557l42.628,24.495
		C110.847,176.8,113.26,185.501,109.312,192.594z M64.271,320.551h-49.72c-7.897,0-14.185-6.288-14.185-14.185
		s6.288-14.185,14.185-14.185h49.72c7.897,0,14.185,6.288,14.185,14.185C78.529,314.262,72.168,320.551,64.271,320.551z
		 M109.312,420.065c3.948,7.092,1.609,15.794-5.557,19.742l-42.628,24.495c-2.34,1.609-4.753,1.609-7.092,1.609
		c-4.753,0-10.237-2.34-12.649-7.092c-3.948-7.092-1.609-15.794,5.557-19.742l42.628-24.495
		C95.858,410.559,105.363,412.972,109.312,420.065z M197.712,523.527l-24.422,42.628c-2.34,4.753-7.897,7.092-12.649,7.092
		c-2.34,0-4.753-0.804-7.092-1.609c-7.092-3.948-9.505-12.649-5.557-19.742l24.495-42.628c3.948-7.092,12.649-9.505,19.742-5.557
		C199.32,507.733,201.66,516.361,197.712,523.527z M320.916,548.753v49.72c0,7.897-6.288,14.185-14.185,14.185
		c-7.897,0-14.185-6.288-14.185-14.185v-49.72c0-7.897,6.288-14.185,14.185-14.185C314.628,533.763,320.916,540.856,320.916,548.753
		z M464.667,551.897c3.948,7.092,1.609,15.794-5.557,19.742c-2.34,0.804-4.753,1.609-7.092,1.609c-4.753,0-10.237-2.34-12.65-7.092
		l-24.495-42.628c-3.948-7.092-1.609-15.794,5.557-19.742c7.092-3.948,15.794-1.609,19.742,5.557L464.667,551.897z M571.273,459.548
		c-2.34,4.753-7.897,7.092-12.65,7.092c-2.34,0-4.753-0.804-7.092-1.609l-42.628-24.495c-7.092-3.948-9.505-12.649-5.557-19.742
		c3.948-7.092,12.65-9.505,19.742-5.557l42.628,24.495C572.809,443.755,575.221,452.456,571.273,459.548z M612.292,306.366
		c0,7.897-6.288,14.185-14.185,14.185h-49.72c-7.897,0-14.185-6.288-14.185-14.185c0-7.897,6.288-14.185,14.185-14.185h49.72
		C606.004,291.303,612.292,298.469,612.292,306.366z M503.346,192.594c-3.948-7.092-1.609-15.794,5.557-19.742l42.628-24.495
		c7.092-3.948,15.794-1.609,19.742,5.557c3.948,7.092,1.609,15.794-5.557,19.742l-42.628,24.495
		c-2.34,1.609-4.753,1.609-7.092,1.609C511.243,199.759,506.49,197.346,503.346,192.594z M414.873,89.204l24.495-42.628
		c3.948-7.092,12.65-9.505,19.742-5.557s9.505,12.649,5.557,19.742l-24.495,42.628c-2.34,4.753-7.897,7.092-12.65,7.092
		c-2.34,0-4.753-0.804-7.092-1.609C413.338,104.998,410.925,96.297,414.873,89.204z"/>
</g>
<g>
</g>
<g>
</g>
<g>
</g>
<g>
</g>
<g>
</g>
<g>
</g>
<g>
</g>
<g>
</g>
<g>
</g>
<g>
</g>
<g>
</g>
<g>
</g>
<g>
</g>
<g>
</g>
<g>
</g>
</svg>
