<?xml version="1.0" encoding="iso-8859-1"?>
<!-- Generator: Adobe Illustrator 18.1.1, SVG Export Plug-In . SVG Version: 6.00 Build 0)  -->
<svg version="1.1" id="Capa_1" xmlns="http://www.w3.org/2000/svg" xmlns:xlink="http://www.w3.org/1999/xlink" x="0px" y="0px"
	 viewBox="0 0 791.911 791.911" style="enable-background:new 0 0 791.911 791.911;" xml:space="preserve">
<g>
	<path d="M507.196,0H284.715c-41.194,0-74.752,33.559-74.752,74.752v642.407c0,41.194,33.559,74.752,74.752,74.752h222.481
		c41.194,0,74.752-33.559,74.752-74.752V74.752C581.948,33.559,548.39,0,507.196,0z M546.525,717.159
		c0,22.017-17.223,39.329-39.329,39.329H284.715c-22.017,0-39.329-17.223-39.329-39.329V74.752
		c0-22.017,17.223-39.329,39.329-39.329h222.481c22.017,0,39.329,17.223,39.329,39.329V717.159L546.525,717.159z M395.956,92.952
		c-49.894,0-90.111,40.306-90.111,90.111s40.306,90.111,90.111,90.111c49.894,0,90.111-40.306,90.111-90.111
		S445.85,92.952,395.956,92.952z M395.956,237.751c-30.718,0-54.688-24.947-54.688-54.688c0-30.718,24.947-54.688,54.688-54.688
		c30.718,0,54.688,24.947,54.688,54.688C450.644,213.781,426.673,237.751,395.956,237.751z M395.956,308.686
		c-49.894,0-90.111,40.306-90.111,90.111s40.306,90.111,90.111,90.111c49.894,0,90.111-40.306,90.111-90.111
		S445.85,308.686,395.956,308.686z M395.956,453.485c-30.718,0-54.688-24.947-54.688-54.688c0-30.718,24.947-54.688,54.688-54.688
		c30.718,0,54.688,24.947,54.688,54.688C450.644,429.514,426.673,453.485,395.956,453.485z M395.956,524.419
		c-49.894,0-90.111,40.306-90.111,90.111c0,49.894,40.306,90.111,90.111,90.111c49.894,0,90.111-40.306,90.111-90.111
		C486.067,564.725,445.85,524.419,395.956,524.419z M395.956,670.195c-30.718,0-54.688-24.947-54.688-54.688
		c0-30.718,24.947-54.688,54.688-54.688c30.718,0,54.688,24.947,54.688,54.688C450.644,645.248,426.673,670.195,395.956,670.195z"/>
</g>
<g>
</g>
<g>
</g>
<g>
</g>
<g>
</g>
<g>
</g>
<g>
</g>
<g>
</g>
<g>
</g>
<g>
</g>
<g>
</g>
<g>
</g>
<g>
</g>
<g>
</g>
<g>
</g>
<g>
</g>
</svg>
