<?xml version="1.0" encoding="iso-8859-1"?>
<!-- Generator: Adobe Illustrator 18.1.1, SVG Export Plug-In . SVG Version: 6.00 Build 0)  -->
<svg version="1.1" id="Capa_1" xmlns="http://www.w3.org/2000/svg" xmlns:xlink="http://www.w3.org/1999/xlink" x="0px" y="0px"
	 viewBox="0 0 612 612" style="enable-background:new 0 0 612 612;" xml:space="preserve">
<g>
	<path d="M612,115.188c0-0.787,0-2.289-0.787-3.076V71.903c0-20.891-17.028-37.848-37.848-37.848H37.848
		C16.956,34.056,0,51.083,0,71.903v396.362c0,20.891,17.028,37.848,37.848,37.848h168.49v57.952c0,7.727,6.153,13.88,13.88,13.88
		h171.566c7.727,0,13.88-6.153,13.88-13.88v-57.952h166.916c20.891,0,37.848-17.028,37.848-37.848v-42.498
		c0-0.787,0.787-2.289,0.787-3.076V115.188H612z M582.595,408.811H30.121V129.068h553.261v279.743H582.595z M37.848,62.674h536.233
		c4.65,0,9.301,3.863,9.301,9.301v29.334H28.618V71.975C28.618,66.537,32.482,62.674,37.848,62.674z M378.619,549.469H234.884
		v-43.285h142.948v43.285H378.619z M574.081,477.638H392.498H221.004H37.848c-4.65,0-9.301-3.863-9.301-9.301v-30.908h554.048
		v30.908C582.595,473.774,578.731,477.638,574.081,477.638z"/>
</g>
<g>
</g>
<g>
</g>
<g>
</g>
<g>
</g>
<g>
</g>
<g>
</g>
<g>
</g>
<g>
</g>
<g>
</g>
<g>
</g>
<g>
</g>
<g>
</g>
<g>
</g>
<g>
</g>
<g>
</g>
</svg>
