<?xml version="1.0" encoding="iso-8859-1"?>
<!-- Generator: Adobe Illustrator 18.1.1, SVG Export Plug-In . SVG Version: 6.00 Build 0)  -->
<svg version="1.1" id="Capa_1" xmlns="http://www.w3.org/2000/svg" xmlns:xlink="http://www.w3.org/1999/xlink" x="0px" y="0px"
	 viewBox="0 0 791.911 791.911" style="enable-background:new 0 0 791.911 791.911;" xml:space="preserve">
<g>
	<path d="M661.822,104.622h-48.978V62.4c0-28.8-21.156-42.222-43.2-43.2H466v-1.956C466,7.644,458.356,0,448.756,0H261.467
		c-9.6,0-17.244,7.644-17.244,17.244v2.844H154c-32.622,0-58.578,25.956-60.444,57.6c0,0.978,0,1.956,0,2.844v649.956l0,0v0.978
		c0,33.6,26.844,60.444,60.444,60.444h457.956h0.978c41.244-1.956,85.422-27.822,85.422-95.022v-556.8
		C698.267,120.889,682,104.622,661.822,104.622z M279.778,34.489h150.756v1.956v317.778l-64.356-54.756
		c-1.956-0.978-2.844-1.956-4.8-2.844l0,0c-1.956-0.978-3.822-0.978-5.778-0.978l0,0l0,0c-0.978,0-2.844,0-3.822,0.978
		c-0.978,0-0.978,0-1.956,0c-1.956,0.978-3.822,1.956-5.778,2.844l-64.356,49.956v-312v-2.933H279.778z M129.022,82.489
		c0-0.978,0-1.956,0-1.956c0-13.422,11.556-24.978,24.978-24.978h90.222v330.222c0,6.756,3.822,13.422,9.6,16.356
		c5.778,2.933,13.422,1.956,18.222-1.956l81.6-63.378l82.578,70.044c0.978,0.978,2.844,1.956,3.822,2.844h0.978
		c0.978,0.978,2.844,0.978,3.822,0.978c0,0,0,0,0.978,0s0.978,0,1.956,0s0.978,0,1.956,0h0.978c1.956,0,2.844-0.978,4.8-0.978
		c6.756-2.844,10.578-9.6,10.578-16.356V54.667h103.644c7.644,0,7.644,3.822,7.644,7.644v60.444v533.778
		c0,12.444-4.8,14.4-10.578,15.378H154c-1.956,0-3.822,0-6.756,0c-0.978,0-1.956,0-3.822,0.978c-0.978,0-1.956,0-2.844,0
		c-1.956,0-2.844,0.978-4.8,0.978H134.8c-1.956,0.978-2.844,0.978-4.8,1.956c0,0,0,0-0.978,0c0,0-0.978,0-0.978,0.978V82.489
		H129.022z M662.8,697.867c0,46.044-27.822,57.6-50.844,59.556H154c-13.422,0-24.978-11.556-24.978-24.978v-0.978
		c0-4.8,1.956-9.6,4.8-13.422c0,0,0-0.978,0.978-0.978c0.978-0.978,0.978-1.956,1.956-2.844c0.978-0.978,1.956-0.978,1.956-1.956
		l0.978-0.978c0.978-0.978,1.956-0.978,3.822-1.956c0,0,0,0,0.978,0c0.978-0.978,2.844-0.978,3.822-0.978c0,0,0,0,0.978,0
		c1.956,0,2.844-0.978,4.8-0.978h415.644c21.156,0,43.2-14.4,43.2-45.156v-5.778V140h49.956v557.867H662.8z"/>
</g>
<g>
</g>
<g>
</g>
<g>
</g>
<g>
</g>
<g>
</g>
<g>
</g>
<g>
</g>
<g>
</g>
<g>
</g>
<g>
</g>
<g>
</g>
<g>
</g>
<g>
</g>
<g>
</g>
<g>
</g>
</svg>
