<?xml version="1.0" encoding="iso-8859-1"?>
<!-- Generator: Adobe Illustrator 18.1.1, SVG Export Plug-In . SVG Version: 6.00 Build 0)  -->
<svg version="1.1" id="Capa_1" xmlns="http://www.w3.org/2000/svg" xmlns:xlink="http://www.w3.org/1999/xlink" x="0px" y="0px"
	 viewBox="0 0 613.113 613.113" style="enable-background:new 0 0 613.113 613.113;" xml:space="preserve">
<g>
	<path d="M305.777,0C163.959,0,43.799,96.944,9.383,229.12l0,0c0,0.816,0,0.816,0,1.632c-1.632,4.821-2.374,10.384-3.189,16.021
		c0,1.632-0.816,4.005-0.816,5.637c-0.816,4.005-1.632,8.011-1.632,12.016c0,2.374-0.816,4.005-0.816,6.379
		c-0.816,4.005-0.816,8.011-0.816,12.832c0,1.632,0,3.189-0.816,5.637c0,5.637-0.816,12.016-0.816,17.653
		c0,6.379,0,12.016,0.816,17.653c0,1.632,0,3.189,0.816,5.637c0,4.005,0.816,8.827,1.632,12.832c0,2.374,0.816,4.005,0.816,5.637
		c0.816,4.005,1.632,8.011,1.632,12.016c0,1.632,0.816,4.005,0.816,5.637c0.816,5.637,2.374,10.384,3.189,16.021
		c0,0.816,0,0.816,0,1.632l0,0c34.416,131.36,153.834,229.12,296.395,229.12c169.04,0,306.037-136.997,306.037-306.037
		S474.817,0,305.777,0z M276.924,365.301H35.788c0-0.816,0-0.816-0.816-1.632c-0.816-2.374-0.816-4.821-1.632-7.195
		c-0.816-2.374-0.816-4.821-1.632-6.379c-0.816-3.189-0.816-5.637-0.816-8.827c0-1.632-0.816-3.189-0.816-5.637
		c0-3.189-0.816-7.195-0.816-10.384c0-1.632,0-2.374,0-4.005c0-4.821,0-9.642,0-14.39c0-4.747,0-9.642,0-14.39
		c0-1.632,0-2.374,0-4.005c0-3.189,0.816-7.195,0.816-10.384c0-1.632,0.816-4.005,0.816-5.637c0-3.189,0.816-5.637,0.816-8.827
		c0-2.374,0.816-4.821,1.632-7.195c0.816-2.374,0.816-4.821,1.632-7.195c0-0.816,0-0.816,0.816-1.632h241.136
		c8.011,0,14.39-6.379,14.39-14.39v-56.075L423.49,305.295c0.816,0.816,0.816,1.632,1.632,1.632c0,0,0,0.816-1.632,1.632
		L292.13,435.765v-56.075C292.13,371.68,284.935,365.301,276.924,365.301z M305.777,583.221
		c-121.792,0-225.115-79.291-261.978-188.251H262.46v63.269c0,0.816,0,0.816,0,1.632c1.632,14.39,11.2,19.211,18.395,19.211
		c8.827,0,14.39-5.637,16.837-8.011l146.64-141.819c8.827-8.011,10.384-16.837,10.384-22.4c0-12.016-7.195-20.027-10.384-23.216
		L296.951,141.003c-2.374-1.632-8.011-8.011-16.837-8.011c-7.195,0-16.021,4.821-18.395,17.653c0,0.816,0,1.632,0,2.374v65.717
		H43.799C80.663,108.96,183.986,29.669,305.777,29.669c152.203,0,276.368,124.165,276.368,276.368S457.98,583.221,305.777,583.221z"
		/>
</g>
<g>
</g>
<g>
</g>
<g>
</g>
<g>
</g>
<g>
</g>
<g>
</g>
<g>
</g>
<g>
</g>
<g>
</g>
<g>
</g>
<g>
</g>
<g>
</g>
<g>
</g>
<g>
</g>
<g>
</g>
</svg>
