<?xml version="1.0" encoding="iso-8859-1"?>
<!-- Generator: Adobe Illustrator 18.1.1, SVG Export Plug-In . SVG Version: 6.00 Build 0)  -->
<svg version="1.1" id="Capa_1" xmlns="http://www.w3.org/2000/svg" xmlns:xlink="http://www.w3.org/1999/xlink" x="0px" y="0px"
	 viewBox="0 0 678.825 678.825" style="enable-background:new 0 0 678.825 678.825;" xml:space="preserve">
<g>
	<path d="M642.569,508.725L584.219,375.9l55.05-136.875c4.875-12.15,2.4-20.25-1.65-25.125c-7.275-10.5-19.425-11.325-22.65-11.325
		h-136.05v-78.6c0-17.85-14.55-33.225-33.225-33.225H205.169c0-1.65,0-3.225,0-4.875c0-46.95-38.85-85.875-85.875-85.875
		S33.419,38.85,33.419,85.875c0,23.475,8.925,44.55,24.3,59.925c-0.825,3.225-0.825,6.45-0.825,8.925v461.7
		c0,34.05,28.35,62.4,62.4,62.4s62.4-28.35,62.4-62.4V438.3h153.825v74.55v4.05c0,17.85,14.55,33.225,33.225,33.225h249.525
		c0.825,0,1.65,0,3.225,0c2.4-0.825,15.375-3.225,21.9-15.375C644.969,528.225,647.369,520.125,642.569,508.725z M120.119,30.075
		c30.75,0,55.875,25.125,55.875,55.875c0,5.7-0.825,10.5-2.4,16.2c-0.825,2.4-1.65,5.7-3.225,8.1c0,0,0,0,0,0.825
		c-2.4,4.875-5.7,9.75-9.75,13.8l0,0c-1.65,1.65-4.05,4.05-5.7,5.7s-3.225,2.4-5.7,4.05c-0.825,0-0.825,0.825-1.65,0.825
		c-19.425,10.5-45.375,8.925-62.4-4.875c-12.975-10.5-21.075-25.95-21.075-43.725C64.169,55.125,89.294,30.075,120.119,30.075z
		 M152.519,616.5c0,17.85-14.55,32.4-32.4,32.4s-32.4-14.55-32.4-32.4V165.3c0.825,0,1.65,0.825,2.4,0.825
		c1.65,0.825,3.225,1.65,5.7,1.65c0,0,0,0,0.825,0l0,0l0,0c3.225,0.825,6.45,1.65,10.5,2.4h0.825h0.825l0,0l0,0h0.825
		c1.65,0,2.4,0,4.05,0.825c2.4,0,4.875,0,7.275,0l0,0l0,0c2.4,0,4.875,0,7.275,0c1.65,0,2.4,0,4.05-0.825c0.825,0,1.65,0,2.4,0l0,0
		h0.825c0.825,0,0.825,0,1.65,0c0.825,0,2.4-0.825,3.225-0.825s2.4-0.825,3.225-0.825s0.825,0,1.65-0.825l0,0
		c0.825,0,1.65-0.825,2.4-0.825l0,0l0,0c0,0,0,0,0.825,0h0.825c0.825,0,1.65-0.825,2.4-0.825c0.825,0,0.825,0,1.65-0.825v257.55
		V616.35h-0.825V616.5z M182.444,154.8c0-3.225,0-5.7-0.825-8.925c0.825-0.825,1.65-2.4,2.4-3.225c0.825-0.825,1.65-1.65,1.65-2.4
		c3.225-4.05,6.45-8.1,8.925-12.975c0.825-0.825,0.825-1.65,1.65-2.4c0.825-0.825,1.65-2.4,1.65-3.225h247.875
		c1.65,0,3.225,1.65,3.225,3.225v93.15v187.95c0,1.65-1.65,3.225-3.225,3.225h-94.8H182.444V154.8z M419.819,438.3l-53.475,58.35
		V438.3H419.819L419.819,438.3z M384.944,519.3l79.35-85.875c0.825-0.825,0.825-1.65,1.65-2.4c8.1-5.7,12.975-15.375,12.975-25.95
		v-172.5h131.25l-55.875,137.7c-1.65,4.05-1.65,8.1,0,11.325l59.925,137.7H384.944L384.944,519.3z"/>
</g>
<g>
</g>
<g>
</g>
<g>
</g>
<g>
</g>
<g>
</g>
<g>
</g>
<g>
</g>
<g>
</g>
<g>
</g>
<g>
</g>
<g>
</g>
<g>
</g>
<g>
</g>
<g>
</g>
<g>
</g>
</svg>
