<?xml version="1.0" encoding="iso-8859-1"?>
<!-- Generator: Adobe Illustrator 18.1.1, SVG Export Plug-In . SVG Version: 6.00 Build 0)  -->
<svg version="1.1" id="Capa_1" xmlns="http://www.w3.org/2000/svg" xmlns:xlink="http://www.w3.org/1999/xlink" x="0px" y="0px"
	 viewBox="0 0 611.931 611.931" style="enable-background:new 0 0 611.931 611.931;" xml:space="preserve">
<g>
	<path d="M578.632,236.797h-31.107v-48.853c0-19.253-15.553-35.492-35.492-35.492H35.492C16.239,152.452,0,168.005,0,187.944
		v236.043c0,19.253,15.554,35.492,35.492,35.492h477.294c19.253,0,35.492-15.554,35.492-35.492v-57.692h31.107
		c17.746,0,32.546-14.8,32.546-32.546v-64.407C611.178,251.597,596.378,236.797,578.632,236.797z M520.186,424.056
		c0,4.454-3.7,8.154-8.154,8.154H35.492c-4.454,0-8.154-3.7-8.154-8.154V188.013c0-4.454,3.7-8.154,8.154-8.154h477.294
		c4.454,0,8.154,3.7,8.154,8.154v64.407v99.899v71.807h-0.754V424.056z M583.839,333.75c0,2.946-2.193,5.207-5.207,5.207h-31.107
		v-74.753h31.107c2.946,0,5.207,2.193,5.207,5.207V333.75z M127.237,246.458V365.61c0,7.4-5.893,13.292-13.292,13.292
		c-7.4,0-13.292-5.893-13.292-13.292V246.458c0-7.4,5.893-13.292,13.292-13.292C121.345,233.166,127.237,238.305,127.237,246.458z
		 M234.536,246.458V365.61c0,7.4-5.893,13.292-13.292,13.292c-7.4,0-13.292-5.893-13.292-13.292V246.458
		c0-7.4,5.893-13.292,13.292-13.292C227.89,232.412,234.536,238.305,234.536,246.458z M341.081,246.458V365.61
		c0,7.4-5.893,13.292-13.292,13.292s-13.292-5.893-13.292-13.292V246.458c0-7.4,5.892-13.292,13.292-13.292
		C335.189,232.412,341.081,238.305,341.081,246.458z M448.38,246.458V365.61c0,7.4-5.893,13.292-13.292,13.292
		c-7.4,0-13.292-5.893-13.292-13.292V246.458c0-7.4,5.892-13.292,13.292-13.292C442.487,232.412,448.38,238.305,448.38,246.458z"/>
</g>
<g>
</g>
<g>
</g>
<g>
</g>
<g>
</g>
<g>
</g>
<g>
</g>
<g>
</g>
<g>
</g>
<g>
</g>
<g>
</g>
<g>
</g>
<g>
</g>
<g>
</g>
<g>
</g>
<g>
</g>
</svg>
