<?xml version="1.0" encoding="iso-8859-1"?>
<!-- Generator: Adobe Illustrator 18.1.1, SVG Export Plug-In . SVG Version: 6.00 Build 0)  -->
<svg version="1.1" id="Capa_1" xmlns="http://www.w3.org/2000/svg" xmlns:xlink="http://www.w3.org/1999/xlink" x="0px" y="0px"
	 viewBox="0 0 611.989 611.989" style="enable-background:new 0 0 611.989 611.989;" xml:space="preserve">
<g>
	<path d="M610.245,523.899l-40.486-65.501l-0.75-0.75c1.499-3.681,2.931-8.111,2.931-13.223V102.131
		c0-19.153-15.472-34.625-34.625-34.625H75.06c-19.153,0-34.625,15.472-34.625,34.625v342.295c0,4.43,0.75,8.861,2.931,13.223
		l-0.75,0.75L2.198,523.899c-2.931,4.43-2.931,9.542,0,13.973c2.181,4.43,6.611,6.611,11.792,6.611h585.213
		c5.18,0,9.542-2.931,11.792-6.611C612.426,533.509,612.426,528.329,610.245,523.899z M67.699,444.426v-25.014h476.977v25.014
		c0,3.681-2.931,7.361-7.361,7.361H75.06C70.698,451.787,67.699,448.856,67.699,444.426z M68.449,392.148V152.909h475.546v239.238
		H68.449z M75.06,94.77h462.255c3.681,0,7.361,2.931,7.361,7.361v23.583H67.699v-23.583C67.699,98.45,70.698,94.77,75.06,94.77z
		 M37.573,517.288l23.583-38.305h13.223h462.255h13.223l23.583,38.305H37.573z"/>
</g>
<g>
</g>
<g>
</g>
<g>
</g>
<g>
</g>
<g>
</g>
<g>
</g>
<g>
</g>
<g>
</g>
<g>
</g>
<g>
</g>
<g>
</g>
<g>
</g>
<g>
</g>
<g>
</g>
<g>
</g>
</svg>
