<?xml version="1.0" encoding="iso-8859-1"?>
<!-- Generator: Adobe Illustrator 18.1.1, SVG Export Plug-In . SVG Version: 6.00 Build 0)  -->
<svg version="1.1" id="Capa_1" xmlns="http://www.w3.org/2000/svg" xmlns:xlink="http://www.w3.org/1999/xlink" x="0px" y="0px"
	 viewBox="0 0 612.081 612.081" style="enable-background:new 0 0 612.081 612.081;" xml:space="preserve">
<g>
	<path d="M227.8,91.281H109.553c-20.848,0-34.774,10.464-40.006,15.616l-53.931,53.931C2.576,173.868,0,188.679,0,197.373V319.08
		c0,4.347,0.885,8.693,2.576,13.926c0,1.771,0.885,3.461,1.771,5.232l0.885,0.885c0.885,1.771,1.771,3.461,2.576,4.347
		L89.51,499.066c4.347,7.808,16.501,21.733,39.12,21.733h106.897h0.885c10.464,0,19.158-4.347,23.504-12.155
		c2.576-4.347,5.232-13.926-1.771-26.08L189.484,367.78h38.235c26.08,0,47.814-21.734,47.814-47.814V139.095
		C275.613,113.014,253.88,91.281,227.8,91.281z M243.416,319.08c0,8.693-6.923,15.616-15.616,15.616h-69.547
		c-6.118,0-11.269,3.461-13.926,7.808c-2.576,5.232-2.576,11.269,0,16.501l76.47,128.63H126.94c-7.808,0-10.464-3.461-10.464-4.347
		L33.969,326.888c0-0.885-0.885-0.885-0.885-1.771l0,0v-0.885c-0.885-1.771-0.885-3.461-0.885-5.232V198.258
		c0-3.461,0.885-8.693,6.118-13.926l53.931-53.931c1.771-1.771,7.808-6.923,17.387-6.923H227.88c8.693,0,15.616,6.923,15.616,15.616
		V319.08H243.416z M564.267,91.281H446.02c-20.848,0-34.774,10.464-40.006,15.616l-53.931,53.931
		c-13.04,13.04-15.616,27.851-15.616,36.545V319.08c0,4.347,0.885,8.693,2.576,13.926c0,1.771,0.885,3.461,1.771,4.347l0.885,0.885
		c0.885,1.771,1.771,3.461,2.576,4.347l81.702,155.596c4.347,7.808,16.501,21.734,39.12,21.734h106.897h0.885
		c10.464,0,19.158-4.347,23.504-12.155c2.576-4.347,5.232-13.926-1.771-26.08l-71.238-114.785h40.891
		c26.08,0,47.814-21.734,47.814-47.814V139.095C612.08,113.014,590.347,91.281,564.267,91.281z M579.883,319.08
		c0,8.693-6.922,15.616-15.616,15.616h-68.662c-6.118,0-11.269,3.461-13.926,7.808c-2.576,5.232-2.576,11.269,0,16.501l76.47,128.63
		h-94.742c-7.808,0-10.464-3.461-10.464-4.347l-82.587-156.481c0-0.885-0.885-0.885-0.885-1.771v-0.885
		c-0.885-1.771-0.885-3.461-0.885-5.232V198.258c0-3.461,0.885-8.693,6.118-13.926l53.931-53.931
		c1.771-1.771,7.808-6.923,17.387-6.923h118.246c8.693,0,15.616,6.923,15.616,15.616V319.08L579.883,319.08z"/>
</g>
<g>
</g>
<g>
</g>
<g>
</g>
<g>
</g>
<g>
</g>
<g>
</g>
<g>
</g>
<g>
</g>
<g>
</g>
<g>
</g>
<g>
</g>
<g>
</g>
<g>
</g>
<g>
</g>
<g>
</g>
</svg>
