<?xml version="1.0" encoding="iso-8859-1"?>
<!-- Generator: Adobe Illustrator 18.1.1, SVG Export Plug-In . SVG Version: 6.00 Build 0)  -->
<svg version="1.1" id="Capa_1" xmlns="http://www.w3.org/2000/svg" xmlns:xlink="http://www.w3.org/1999/xlink" x="0px" y="0px"
	 viewBox="0 0 612.207 612.207" style="enable-background:new 0 0 612.207 612.207;" xml:space="preserve">
<g>
	<path d="M608.141,345.146c5.238,5.238,5.238,14.128,0,19.366c-2.964,2.964-5.927,3.722-9.649,3.722
		c-3.722,0-6.685-1.516-9.649-3.722l-46.865-46.865l-46.865,46.865c-2.964,2.964-5.927,3.722-9.649,3.722
		c-3.722,0-6.685-1.516-9.649-3.722c-5.238-5.238-5.238-14.128,0-19.366l46.865-46.865l-46.865-46.865
		c-5.238-5.238-5.238-14.128,0-19.366c5.238-5.238,14.128-5.238,19.366,0l46.865,46.865l46.865-46.865
		c5.238-5.238,14.128-5.238,19.366,0c5.238,5.238,5.238,14.128,0,19.366l-46.865,46.865L608.141,345.146z M409.447,91.386v400.419
		v0.758c-0.758,14.128-10.407,20.124-19.366,20.124l0,0c-5.927,0-11.923-2.964-19.366-8.201l-116.128-92.351h-45.418v88.63
		c0,25.293-20.124,45.418-45.418,45.418h-40.18c-25.293,0-45.418-20.124-45.418-45.418v-88.63H44.659
		C20.124,412.135,0,392.011,0,367.476V205.999c0-24.535,20.124-44.659,44.659-44.659h210.685l112.407-90.077
		c0.758-0.758,1.516-1.516,2.205-1.516c0,0,7.443-3.722,15.645-3.722C399.73,66.024,409.447,76.5,409.447,91.386z M44.728,384.636
		h47.623h103.447h50.587v-195.73H44.728c-8.959,0-17.092,7.443-17.092,17.092v161.546C27.568,377.193,35.011,384.636,44.728,384.636
		z M181.67,412.135h-75.949v88.63c0,9.649,8.201,17.85,17.85,17.85h40.18c9.649,0,17.85-8.201,17.85-17.85v-88.63H181.67z
		 M381.88,95.108l-108.685,87.045V392.08l107.927,86.355V95.108H381.88z"/>
</g>
<g>
</g>
<g>
</g>
<g>
</g>
<g>
</g>
<g>
</g>
<g>
</g>
<g>
</g>
<g>
</g>
<g>
</g>
<g>
</g>
<g>
</g>
<g>
</g>
<g>
</g>
<g>
</g>
<g>
</g>
</svg>
