<?xml version="1.0" encoding="iso-8859-1"?>
<!-- Generator: Adobe Illustrator 18.1.1, SVG Export Plug-In . SVG Version: 6.00 Build 0)  -->
<svg version="1.1" id="Capa_1" xmlns="http://www.w3.org/2000/svg" xmlns:xlink="http://www.w3.org/1999/xlink" x="0px" y="0px"
	 viewBox="0 0 612 612" style="enable-background:new 0 0 612 612;" xml:space="preserve">
<g>
	<path d="M375.868,206.747c0,7.814-6.37,14.184-14.184,14.184s-14.184-6.37-14.184-14.184s6.37-14.184,14.184-14.184
		S375.868,198.933,375.868,206.747z M309.152,192.563c-7.814,0-14.184,6.37-14.184,14.184s6.37,14.184,14.184,14.184
		s14.184-6.37,14.184-14.184C323.336,198.933,316.966,192.563,309.152,192.563z M612,202.479v142.559
		c0,15.628-12.739,28.367-28.367,28.367h-48.198c-14.184,0-25.544-10.638-27.645-24.099h-79.455v20.553
		c0,20.553-17.007,37.561-37.56,37.561H265.222v108.479c0,17.007-13.461,30.469-30.469,30.469h-56.012
		c-17.007,0-30.469-13.461-30.469-30.469V407.42H37.561C17.007,407.42,0,390.413,0,369.859V176.935
		c0-20.553,17.007-37.561,37.561-37.561h1.445V96.101c0-17.007,13.461-30.469,30.469-30.469h251.76
		c17.007,0,30.469,13.461,30.469,30.469v43.273h39.005c20.553,0,37.56,17.007,37.56,37.561v20.553h79.455
		c2.101-13.461,14.184-23.377,27.645-23.377h48.198C599.261,174.111,612,186.85,612,202.479z M65.206,139.374h260.297V96.101
		c0-2.101-2.101-4.268-4.268-4.268H69.474c-2.101,0-4.268,2.101-4.268,4.268V139.374z M238.956,407.42H173.75v108.479
		c0,2.824,2.101,4.268,4.268,4.268h56.012c2.824,0,4.268-2.101,4.268-4.268V407.42H238.956z M402.068,335.779V210.95v-33.358
		c0-6.37-4.991-11.36-11.36-11.36h-51.744H52.467H37.561c-6.37,0-11.36,4.991-11.36,11.36v192.202c0,6.37,4.991,11.36,11.36,11.36
		h123.385h91.472h138.291c6.369,0,11.36-4.991,11.36-11.36L402.068,335.779L402.068,335.779z M428.334,323.04h79.455v-99.286
		h-79.455V323.04z M585.734,202.479c0-1.445-0.722-2.101-2.101-2.101h-48.198c-1.445,0-2.101,0.722-2.101,2.101v2.101
		c0.722,2.101,1.445,3.546,1.445,5.647v125.552c0,2.101-0.722,4.268-1.445,5.647v2.824c0,1.445,0.722,2.101,2.101,2.101h48.198
		c1.445,0,2.101-0.722,2.101-2.101V202.479z"/>
</g>
<g>
</g>
<g>
</g>
<g>
</g>
<g>
</g>
<g>
</g>
<g>
</g>
<g>
</g>
<g>
</g>
<g>
</g>
<g>
</g>
<g>
</g>
<g>
</g>
<g>
</g>
<g>
</g>
<g>
</g>
</svg>
