<?xml version="1.0" encoding="iso-8859-1"?>
<!-- Generator: Adobe Illustrator 18.1.1, SVG Export Plug-In . SVG Version: 6.00 Build 0)  -->
<svg version="1.1" id="Capa_1" xmlns="http://www.w3.org/2000/svg" xmlns:xlink="http://www.w3.org/1999/xlink" x="0px" y="0px"
	 viewBox="0 0 612.09 612.09" style="enable-background:new 0 0 612.09 612.09;" xml:space="preserve">
<g>
	<path d="M575.443,57.887H37.317C16.447,57.887,0,74.334,0,95.204v382.154c0,0.76,0,1.52,0,2.211v40.289
		c0,18.659,15.687,34.346,34.346,34.346H285.13c8.224,0,14.927-2.972,20.87-7.463c5.943,4.492,12.715,7.463,20.87,7.463h250.854
		c18.659,0,34.346-15.687,34.346-34.346v-42.569V95.135C612.76,74.265,596.382,57.887,575.443,57.887z M292.594,519.098
		c0,3.732-2.972,6.703-6.703,6.703H35.106c-3.732,0-6.703-2.972-6.703-6.703v-28.333h264.191L292.594,519.098L292.594,519.098z
		 M292.594,463.122H28.402V95.204c0-5.252,4.492-9.675,9.675-9.675h254.516L292.594,463.122L292.594,463.122z M585.187,519.098
		c0,3.732-2.972,6.703-6.703,6.703H327.699c-3.732,0-6.703-2.972-6.703-6.703v-28.333h264.191V519.098z M585.187,463.122H320.236
		V85.46h255.276c5.252,0,9.675,4.492,9.675,9.675V463.122L585.187,463.122z M532.943,235.488c0,7.463-5.943,13.407-13.406,13.407
		H384.435c-7.463,0-13.407-5.943-13.407-13.407c0-7.463,5.943-13.406,13.407-13.406h135.102
		C526.931,222.082,532.943,228.025,532.943,235.488z M532.943,310.122c0,7.463-5.943,13.407-13.406,13.407H384.435
		c-7.463,0-13.407-5.943-13.407-13.407s5.943-13.407,13.407-13.407h135.102C526.931,296.716,532.943,302.659,532.943,310.122z
		 M532.943,387.728c0,7.463-5.943,13.407-13.406,13.407H384.435c-7.463,0-13.407-5.943-13.407-13.407
		c0-7.463,5.943-13.407,13.407-13.407h135.102C526.931,374.322,532.943,380.265,532.943,387.728z M532.943,159.403
		c0,7.463-5.943,13.406-13.406,13.406H384.435c-7.463,0-13.407-5.943-13.407-13.406c0-7.463,5.943-13.407,13.407-13.407h135.102
		C526.931,145.167,532.943,151.179,532.943,159.403z M78.366,235.488c0-7.463,5.943-13.406,13.407-13.406h135.102
		c7.463,0,13.407,5.943,13.407,13.406c0,7.463-5.943,13.407-13.407,13.407H91.841C84.378,249.655,78.366,243.712,78.366,235.488z
		 M78.366,310.122c0-7.463,5.943-13.407,13.407-13.407h135.102c7.463,0,13.407,5.943,13.407,13.407s-5.943,13.407-13.407,13.407
		H91.841C84.378,324.289,78.366,317.586,78.366,310.122z M78.366,387.728c0-7.463,5.943-13.407,13.407-13.407h135.102
		c7.463,0,13.407,5.943,13.407,13.407c0,7.463-5.943,13.407-13.407,13.407H91.841C84.378,401.964,78.366,395.952,78.366,387.728z
		 M78.366,159.403c0-7.463,5.943-13.407,13.407-13.407h135.102c7.463,0,13.407,5.943,13.407,13.407
		c0,7.463-5.943,13.406-13.407,13.406H91.841C84.378,172.809,78.366,166.866,78.366,159.403z"/>
</g>
<g>
</g>
<g>
</g>
<g>
</g>
<g>
</g>
<g>
</g>
<g>
</g>
<g>
</g>
<g>
</g>
<g>
</g>
<g>
</g>
<g>
</g>
<g>
</g>
<g>
</g>
<g>
</g>
<g>
</g>
</svg>
