<?xml version="1.0" encoding="iso-8859-1"?>
<!-- Generator: Adobe Illustrator 18.1.1, SVG Export Plug-In . SVG Version: 6.00 Build 0)  -->
<svg version="1.1" id="Capa_1" xmlns="http://www.w3.org/2000/svg" xmlns:xlink="http://www.w3.org/1999/xlink" x="0px" y="0px"
	 viewBox="0 0 665.247 665.247" style="enable-background:new 0 0 665.247 665.247;" xml:space="preserve">
<g>
	<path d="M581.996,163.159h-40.182v-0.836V31.143C541.814,13.9,527.838,0,510.671,0H157.083C139.84,0,125.94,13.976,125.94,31.143
		v130.421v0.836H83.251c-31.143,0-56.589,25.446-56.589,56.589V452.79c0,31.143,25.446,56.589,56.589,56.589h42.689v123.889
		c0,18.078,14.736,31.979,31.979,31.979h351.917c18.078,0,31.979-14.736,31.979-31.979V509.38h40.182
		c31.143,0,56.589-25.446,56.589-56.589V218.989C638.586,187.77,613.215,163.159,581.996,163.159z M156.247,161.564V31.143
		c0-0.836,0.836-0.836,0.836-0.836h353.588c0.836,0,0.836,0.836,0.836,0.836v130.421c0,0.836-0.836,0.836-0.836,0.836H157.083
		C157.083,163.159,156.247,162.4,156.247,161.564z M511.431,632.433c0,0.836-0.836,1.671-1.671,1.671H157.918
		c-0.836,0-1.671-0.836-1.671-1.671V493.808V392.099c0-0.836,0.836-1.671,1.671-1.671h351.917c0.836,0,1.671,0.836,1.671,1.671
		v102.544v137.789H511.431z M608.278,452.79c0,14.736-11.47,26.282-26.282,26.282h-40.182v-86.973
		c0-18.078-14.736-31.979-31.979-31.979H157.918c-18.078,0-31.979,14.736-31.979,31.979v86.973H83.251
		c-14.736,0-26.282-11.47-26.282-26.282V218.989c0-14.736,11.47-26.282,26.282-26.282h73.832h353.588h71.401
		c14.736,0,26.282,11.47,26.282,26.282L608.278,452.79L608.278,452.79z M561.487,254.234c0,9.039-7.368,16.407-16.407,16.407
		s-16.407-7.368-16.407-16.407s7.368-16.407,16.407-16.407C554.119,237.827,561.487,245.195,561.487,254.234z M500.796,254.234
		c0,9.039-7.368,16.407-16.407,16.407c-9.039,0-16.407-7.368-16.407-16.407s7.368-16.407,16.407-16.407
		C493.428,237.827,500.796,245.195,500.796,254.234z M457.348,556.93c0,8.204-6.532,14.736-14.736,14.736H228.408
		c-8.204,0-14.736-6.532-14.736-14.736s6.532-14.736,14.736-14.736h214.128C450.739,542.194,457.348,548.726,457.348,556.93z
		 M457.348,467.526c0,8.204-6.532,14.736-14.736,14.736H228.408c-8.204,0-14.736-6.532-14.736-14.736
		c0-8.204,6.532-14.736,14.736-14.736h214.128C450.739,451.955,457.348,459.323,457.348,467.526z"/>
</g>
<g>
</g>
<g>
</g>
<g>
</g>
<g>
</g>
<g>
</g>
<g>
</g>
<g>
</g>
<g>
</g>
<g>
</g>
<g>
</g>
<g>
</g>
<g>
</g>
<g>
</g>
<g>
</g>
<g>
</g>
</svg>
