<?xml version="1.0" encoding="iso-8859-1"?>
<!-- Generator: Adobe Illustrator 18.1.1, SVG Export Plug-In . SVG Version: 6.00 Build 0)  -->
<svg version="1.1" id="Capa_1" xmlns="http://www.w3.org/2000/svg" xmlns:xlink="http://www.w3.org/1999/xlink" x="0px" y="0px"
	 viewBox="0 0 612 612" style="enable-background:new 0 0 612 612;" xml:space="preserve">
<g>
	<path d="M555.747,152.486h-48.853h-70.299h-19.939V99.179c0-20.692-16.992-37.753-37.753-37.753H233.166
		c-20.692,0-37.753,16.992-37.753,37.753v53.307h-20.007h-70.299H56.253C25.146,152.486,0,177.632,0,208.739v285.582
		c0,31.107,25.146,56.253,56.253,56.253h48.853h70.299h261.189h70.299h48.853c31.107,0,56.253-25.146,56.253-56.253V207.917
		C611.246,177.632,586.1,152.486,555.747,152.486z M91.814,523.235H56.253c-15.554,0-28.846-12.607-28.846-28.846V207.985
		c0-15.554,12.607-28.846,28.846-28.846h35.492v344.096H91.814z M161.359,523.235h-42.892V179.825h42.892V523.235z M222.066,99.179
		c0-5.893,4.454-10.346,10.346-10.346h145.806c5.893,0,10.346,4.454,10.346,10.346v53.307H222.066V99.179z M422.549,523.235H188.766
		V179.825h20.007h193.905h20.007v343.411H422.549z M492.848,523.235h-42.892V179.825h42.892V523.235z M583.908,494.321
		c0,15.554-12.607,28.846-28.846,28.846h-34.807V179.825h35.492c15.554,0,28.846,12.607,28.846,28.846v285.65H583.908z"/>
</g>
<g>
</g>
<g>
</g>
<g>
</g>
<g>
</g>
<g>
</g>
<g>
</g>
<g>
</g>
<g>
</g>
<g>
</g>
<g>
</g>
<g>
</g>
<g>
</g>
<g>
</g>
<g>
</g>
<g>
</g>
</svg>
