<?xml version="1.0" encoding="iso-8859-1"?>
<!-- Generator: Adobe Illustrator 18.1.1, SVG Export Plug-In . SVG Version: 6.00 Build 0)  -->
<svg version="1.1" id="Capa_1" xmlns="http://www.w3.org/2000/svg" xmlns:xlink="http://www.w3.org/1999/xlink" x="0px" y="0px"
	 viewBox="0 0 653.971 653.971" style="enable-background:new 0 0 653.971 653.971;" xml:space="preserve">
<g>
	<path d="M530.845,249.884H414.137v-59.283h54.723c16.383,0,22.801-8.192,24.659-13.681c1.858-3.631,4.56-13.681-5.489-23.73
		L350.209,10.049C342.017,1.858,333.826,0,328.337,0c-11.823,0-20.099,7.263-23.73,10.049L168.729,150.488
		c-10.978,10.978-10.049,20.099-7.263,26.432c1.858,3.631,7.263,12.752,22.801,13.681h55.652v58.354H123.126
		c-56.581,0-102.183,45.602-102.183,102.183v200.65c0,56.581,45.602,102.183,102.183,102.183h133.176l0,0l0,0H396.74h134.105
		c56.581,0,102.183-45.602,102.183-102.183v-200.65C632.943,295.486,587.341,249.884,530.845,249.884z M239.919,621.12H123.126
		c-37.411,0-68.403-30.993-68.403-68.403v-200.65c0-37.411,30.993-68.403,68.403-68.403h116.793v271.756
		c0,0.929-0.929,2.702-0.929,3.631v61.985h0.929V621.12z M273.614,559.051V267.196v-92.978c0-9.12-7.263-16.383-16.383-16.383
		h-47.46L327.408,35.637L445.129,157.75h-47.46c-9.121,0-16.383,7.263-16.383,16.383v92.134v353.84H273.614V559.051z
		 M599.248,552.717c0,37.411-30.993,68.403-68.404,68.403H414.137V283.663h116.708c37.411,0,68.404,30.993,68.404,68.403V552.717z"
		/>
</g>
<g>
</g>
<g>
</g>
<g>
</g>
<g>
</g>
<g>
</g>
<g>
</g>
<g>
</g>
<g>
</g>
<g>
</g>
<g>
</g>
<g>
</g>
<g>
</g>
<g>
</g>
<g>
</g>
<g>
</g>
</svg>
